<?xml version="1.0" encoding="UTF-8"?>
<svg xmlns="http://www.w3.org/2000/svg" xmlns:xlink="http://www.w3.org/1999/xlink" width="793.701" height="1020.472" viewBox="0 0 793.701 1020.472">
<path fill="none" stroke-width="0.8" stroke-linecap="round" stroke-linejoin="miter" stroke="rgb(0%, 0%, 0%)" stroke-opacity="1" stroke-miterlimit="10" d="M 25.0625 143.832031 C 28.78125 143.855469 30.9375 143.832031 36.109375 143.769531 "/>
<path fill="none" stroke-width="0.8" stroke-linecap="round" stroke-linejoin="miter" stroke="rgb(0%, 0%, 0%)" stroke-opacity="1" stroke-miterlimit="10" d="M 30.277344 143.898438 C 30.171875 148.554688 30.234375 152.933594 30.105469 157.015625 "/>
<path fill="none" stroke-width="0.8" stroke-linecap="round" stroke-linejoin="miter" stroke="rgb(0%, 0%, 0%)" stroke-opacity="1" stroke-miterlimit="10" d="M 34.707031 150.125 C 39.386719 149.5 39.84375 150.0625 39.207031 157.003906 "/>
<path fill="none" stroke-width="0.8" stroke-linecap="round" stroke-linejoin="miter" stroke="rgb(0%, 0%, 0%)" stroke-opacity="1" stroke-miterlimit="10" d="M 34.394531 145.113281 C 34.777344 156.082031 34.648438 156.179688 34.664062 157.171875 "/>
<path fill="none" stroke-width="0.8" stroke-linecap="round" stroke-linejoin="miter" stroke="rgb(0%, 0%, 0%)" stroke-opacity="1" stroke-miterlimit="10" d="M 42.144531 151.394531 C 45.9375 154.550781 49.628906 149.367188 47.375 148.757812 C 39.792969 146.699219 38.347656 162.070312 49.613281 154.738281 "/>
<path fill="none" stroke-width="0.8" stroke-linecap="round" stroke-linejoin="miter" stroke="rgb(0%, 0%, 0%)" stroke-opacity="1" stroke-miterlimit="10" d="M 68.167969 145.84375 C 61.59375 144.738281 61.046875 156.851562 66.636719 157.066406 C 72.53125 157.292969 75.554688 147.699219 67.992188 145.773438 "/>
<path fill="none" stroke-width="0.8" stroke-linecap="round" stroke-linejoin="miter" stroke="rgb(0%, 0%, 0%)" stroke-opacity="1" stroke-miterlimit="10" d="M 68.359375 153.363281 C 69.457031 155.171875 70.65625 157.191406 72.199219 159.195312 "/>
<path fill="none" stroke-width="0.8" stroke-linecap="round" stroke-linejoin="miter" stroke="rgb(0%, 0%, 0%)" stroke-opacity="1" stroke-miterlimit="10" d="M 73.800781 148.234375 C 73.460938 159.542969 80.25 159.355469 80.1875 148 "/>
<path fill="none" stroke-width="0.8" stroke-linecap="round" stroke-linejoin="miter" stroke="rgb(0%, 0%, 0%)" stroke-opacity="1" stroke-miterlimit="10" d="M 82.714844 148.707031 C 80.601562 149.316406 83.679688 149.570312 82.554688 148.707031 "/>
<path fill="none" stroke-width="0.8" stroke-linecap="round" stroke-linejoin="miter" stroke="rgb(0%, 0%, 0%)" stroke-opacity="1" stroke-miterlimit="10" d="M 82.429688 150.464844 C 82.429688 158.894531 82.492188 156.054688 82.425781 156.652344 "/>
<path fill="none" stroke-width="0.8" stroke-linecap="round" stroke-linejoin="miter" stroke="rgb(0%, 0%, 0%)" stroke-opacity="1" stroke-miterlimit="10" d="M 91.902344 148.46875 C 83.46875 149.152344 81.140625 159.09375 93.988281 155.929688 "/>
<path fill="none" stroke-width="0.8" stroke-linecap="round" stroke-linejoin="miter" stroke="rgb(0%, 0%, 0%)" stroke-opacity="1" stroke-miterlimit="10" d="M 95.757812 146.382812 C 95.90625 152.574219 95.886719 155.300781 95.835938 157.019531 "/>
<path fill="none" stroke-width="0.8" stroke-linecap="round" stroke-linejoin="miter" stroke="rgb(0%, 0%, 0%)" stroke-opacity="1" stroke-miterlimit="10" d="M 100.082031 148.058594 C 97.042969 151.722656 95.304688 151.261719 95.976562 151.886719 C 98.726562 154.453125 98.464844 154.238281 99.648438 156.992188 "/>
<path fill="none" stroke-width="0.8" stroke-linecap="round" stroke-linejoin="miter" stroke="rgb(0%, 0%, 0%)" stroke-opacity="1" stroke-miterlimit="10" d="M 114.117188 143.785156 C 113.835938 155.519531 114.082031 155.585938 113.96875 157.019531 "/>
<path fill="none" stroke-width="0.8" stroke-linecap="round" stroke-linejoin="miter" stroke="rgb(0%, 0%, 0%)" stroke-opacity="1" stroke-miterlimit="10" d="M 113.90625 144.511719 C 121.683594 142.488281 127.894531 150.308594 115.507812 150.492188 C 114.5 150.507812 131.695312 158.082031 114.328125 155.929688 "/>
<path fill="none" stroke-width="0.8" stroke-linecap="round" stroke-linejoin="miter" stroke="rgb(0%, 0%, 0%)" stroke-opacity="1" stroke-miterlimit="10" d="M 123.210938 147.109375 C 130.464844 153.03125 133.78125 156.078125 128.859375 156.6875 C 123.835938 157.308594 123.078125 153.894531 132.699219 147.046875 "/>
<path fill="none" stroke-width="0.8" stroke-linecap="round" stroke-linejoin="miter" stroke="rgb(0%, 0%, 0%)" stroke-opacity="1" stroke-miterlimit="10" d="M 136.960938 148.054688 C 134.3125 147.5 130.519531 155.367188 135.714844 156.796875 C 141.59375 158.417969 140.695312 148.34375 136.777344 148.023438 "/>
<path fill="none" stroke-width="0.8" stroke-linecap="round" stroke-linejoin="miter" stroke="rgb(0%, 0%, 0%)" stroke-opacity="1" stroke-miterlimit="10" d="M 141.332031 147.683594 C 141.648438 149.800781 141.84375 162.179688 143.78125 154.421875 C 145.503906 147.515625 145.414062 167.8125 148.128906 147.835938 "/>
<path fill="none" stroke-width="0.8" stroke-linecap="round" stroke-linejoin="miter" stroke="rgb(0%, 0%, 0%)" stroke-opacity="1" stroke-miterlimit="10" d="M 149.300781 147.839844 C 149.460938 155.9375 149.523438 155.117188 149.460938 156.980469 "/>
<path fill="none" stroke-width="0.8" stroke-linecap="round" stroke-linejoin="miter" stroke="rgb(0%, 0%, 0%)" stroke-opacity="1" stroke-miterlimit="10" d="M 149.453125 148.742188 C 151.539062 148.5625 155.175781 147.835938 154.347656 156.59375 "/>
<path fill="none" stroke-width="0.8" stroke-linecap="round" stroke-linejoin="miter" stroke="rgb(0%, 0%, 0%)" stroke-opacity="1" stroke-miterlimit="10" d="M 176.136719 144.214844 C 169.691406 144.160156 168.992188 144.167969 169.003906 144.125 C 169.25 143.292969 169.027344 148.019531 169.15625 156.996094 "/>
<path fill="none" stroke-width="0.8" stroke-linecap="round" stroke-linejoin="miter" stroke="rgb(0%, 0%, 0%)" stroke-opacity="1" stroke-miterlimit="10" d="M 169.519531 149.714844 C 175.863281 149.714844 175.5 149.894531 175.925781 149.863281 "/>
<path fill="none" stroke-width="0.8" stroke-linecap="round" stroke-linejoin="miter" stroke="rgb(0%, 0%, 0%)" stroke-opacity="1" stroke-miterlimit="10" d="M 180.960938 148.054688 C 178.3125 147.5 174.519531 155.367188 179.714844 156.796875 C 185.59375 158.417969 184.695312 148.34375 180.777344 148.023438 "/>
<path fill="none" stroke-width="0.8" stroke-linecap="round" stroke-linejoin="miter" stroke="rgb(0%, 0%, 0%)" stroke-opacity="1" stroke-miterlimit="10" d="M 185.179688 146.777344 C 193.578125 157.140625 194.117188 156.582031 194.273438 156.59375 "/>
<path fill="none" stroke-width="0.8" stroke-linecap="round" stroke-linejoin="miter" stroke="rgb(0%, 0%, 0%)" stroke-opacity="1" stroke-miterlimit="10" d="M 193.035156 146.898438 C 188.046875 155.570312 185.695312 156.535156 185.632812 156.566406 "/>
<path fill="none" stroke-width="0.8" stroke-linecap="round" stroke-linejoin="miter" stroke="rgb(0%, 0%, 0%)" stroke-opacity="1" stroke-miterlimit="10" d="M 206.03125 144.390625 C 206.941406 144.496094 214.980469 144.433594 216.035156 144.269531 "/>
<path fill="none" stroke-width="0.8" stroke-linecap="round" stroke-linejoin="miter" stroke="rgb(0%, 0%, 0%)" stroke-opacity="1" stroke-miterlimit="10" d="M 211.289062 144.570312 C 211.410156 151.542969 211.425781 152.957031 211.199219 155.355469 C 210.941406 158.09375 208.679688 155.695312 207.179688 154.449219 "/>
<path fill="none" stroke-width="0.8" stroke-linecap="round" stroke-linejoin="miter" stroke="rgb(0%, 0%, 0%)" stroke-opacity="1" stroke-miterlimit="10" d="M 216.300781 148.234375 C 215.960938 159.542969 222.75 159.355469 222.6875 148 "/>
<path fill="none" stroke-width="0.8" stroke-linecap="round" stroke-linejoin="miter" stroke="rgb(0%, 0%, 0%)" stroke-opacity="1" stroke-miterlimit="10" d="M 224.269531 148.035156 C 224.429688 156.132812 224.492188 155.039062 224.429688 156.902344 "/>
<path fill="none" stroke-width="0.8" stroke-linecap="round" stroke-linejoin="miter" stroke="rgb(0%, 0%, 0%)" stroke-opacity="1" stroke-miterlimit="10" d="M 224.359375 149.585938 C 226.769531 145.503906 227.3125 148.101562 228.070312 152.339844 C 228.207031 153.105469 232.296875 138.179688 232.015625 157.046875 "/>
<path fill="none" stroke-width="0.8" stroke-linecap="round" stroke-linejoin="miter" stroke="rgb(0%, 0%, 0%)" stroke-opacity="1" stroke-miterlimit="10" d="M 234.324219 147.4375 C 234.40625 150.570312 234.753906 158.648438 234.800781 169.132812 "/>
<path fill="none" stroke-width="0.8" stroke-linecap="round" stroke-linejoin="miter" stroke="rgb(0%, 0%, 0%)" stroke-opacity="1" stroke-miterlimit="10" d="M 234.410156 147.765625 C 248.289062 147.671875 243.523438 152.78125 234.546875 156.761719 "/>
<path fill="none" stroke-width="0.8" stroke-linecap="round" stroke-linejoin="miter" stroke="rgb(0%, 0%, 0%)" stroke-opacity="1" stroke-miterlimit="10" d="M 245.144531 151.394531 C 248.9375 154.550781 252.628906 149.367188 250.375 148.757812 C 242.792969 146.699219 241.347656 162.070312 252.613281 154.738281 "/>
<path fill="none" stroke-width="0.8" stroke-linecap="round" stroke-linejoin="miter" stroke="rgb(0%, 0%, 0%)" stroke-opacity="1" stroke-miterlimit="10" d="M 259.03125 149.945312 C 253.621094 146.882812 250.382812 159.203125 259 156.257812 "/>
<path fill="none" stroke-width="0.8" stroke-linecap="round" stroke-linejoin="miter" stroke="rgb(0%, 0%, 0%)" stroke-opacity="1" stroke-miterlimit="10" d="M 259.195312 145.328125 C 258.636719 157.285156 259.199219 154.726562 259.03125 157.589844 "/>
<path fill="none" stroke-width="0.8" stroke-linecap="round" stroke-linejoin="miter" stroke="rgb(0%, 0%, 0%)" stroke-opacity="1" stroke-miterlimit="10" d="M 279.207031 143.382812 C 273.527344 141.503906 268 157.675781 278.84375 156.757812 C 287.679688 156.011719 280.964844 142.496094 278.757812 143.171875 "/>
<path fill="none" stroke-width="0.8" stroke-linecap="round" stroke-linejoin="miter" stroke="rgb(0%, 0%, 0%)" stroke-opacity="1" stroke-miterlimit="10" d="M 284.691406 147.1875 C 289.949219 158.695312 285.332031 161.058594 291.421875 147.207031 "/>
<path fill="none" stroke-width="0.8" stroke-linecap="round" stroke-linejoin="miter" stroke="rgb(0%, 0%, 0%)" stroke-opacity="1" stroke-miterlimit="10" d="M 293.644531 151.394531 C 297.4375 154.550781 301.128906 149.367188 298.875 148.757812 C 291.292969 146.699219 289.847656 162.070312 301.113281 154.738281 "/>
<path fill="none" stroke-width="0.8" stroke-linecap="round" stroke-linejoin="miter" stroke="rgb(0%, 0%, 0%)" stroke-opacity="1" stroke-miterlimit="10" d="M 302.210938 147.109375 C 309.464844 153.03125 312.78125 156.078125 307.859375 156.6875 C 302.835938 157.308594 302.078125 153.894531 311.699219 147.046875 "/>
<path fill="none" stroke-width="0.8" stroke-linecap="round" stroke-linejoin="miter" stroke="rgb(0%, 0%, 0%)" stroke-opacity="1" stroke-miterlimit="10" d="M 324.0625 143.832031 C 327.78125 143.855469 329.9375 143.832031 335.109375 143.769531 "/>
<path fill="none" stroke-width="0.8" stroke-linecap="round" stroke-linejoin="miter" stroke="rgb(0%, 0%, 0%)" stroke-opacity="1" stroke-miterlimit="10" d="M 329.277344 143.898438 C 329.171875 148.554688 329.234375 152.933594 329.105469 157.015625 "/>
<path fill="none" stroke-width="0.8" stroke-linecap="round" stroke-linejoin="miter" stroke="rgb(0%, 0%, 0%)" stroke-opacity="1" stroke-miterlimit="10" d="M 333.707031 150.125 C 338.386719 149.5 338.84375 150.0625 338.207031 157.003906 "/>
<path fill="none" stroke-width="0.8" stroke-linecap="round" stroke-linejoin="miter" stroke="rgb(0%, 0%, 0%)" stroke-opacity="1" stroke-miterlimit="10" d="M 333.394531 145.113281 C 333.777344 156.082031 333.648438 156.179688 333.664062 157.171875 "/>
<path fill="none" stroke-width="0.8" stroke-linecap="round" stroke-linejoin="miter" stroke="rgb(0%, 0%, 0%)" stroke-opacity="1" stroke-miterlimit="10" d="M 341.144531 151.394531 C 344.9375 154.550781 348.628906 149.367188 346.375 148.757812 C 338.792969 146.699219 337.347656 162.070312 348.613281 154.738281 "/>
<path fill="none" stroke-width="0.8" stroke-linecap="round" stroke-linejoin="miter" stroke="rgb(0%, 0%, 0%)" stroke-opacity="1" stroke-miterlimit="10" d="M 361.824219 143.570312 C 362.113281 155.078125 361.644531 156.796875 362.027344 156.78125 C 366.277344 156.585938 364.964844 156.796875 369.261719 156.71875 "/>
<path fill="none" stroke-width="0.8" stroke-linecap="round" stroke-linejoin="miter" stroke="rgb(0%, 0%, 0%)" stroke-opacity="1" stroke-miterlimit="10" d="M 376.707031 148.339844 C 368.253906 148.546875 367.894531 158.898438 378.367188 155.785156 "/>
<path fill="none" stroke-width="0.8" stroke-linecap="round" stroke-linejoin="miter" stroke="rgb(0%, 0%, 0%)" stroke-opacity="1" stroke-miterlimit="10" d="M 376.804688 147.671875 C 378.007812 154.738281 378.425781 156.011719 379.179688 156.898438 "/>
<path fill="none" stroke-width="0.8" stroke-linecap="round" stroke-linejoin="miter" stroke="rgb(0%, 0%, 0%)" stroke-opacity="1" stroke-miterlimit="10" d="M 380.574219 147.441406 C 390.433594 147.625 391.179688 146.667969 385.015625 151.367188 C 377.089844 157.414062 379.382812 156.898438 389.15625 156.261719 "/>
<path fill="none" stroke-width="0.8" stroke-linecap="round" stroke-linejoin="miter" stroke="rgb(0%, 0%, 0%)" stroke-opacity="1" stroke-miterlimit="10" d="M 389.359375 147.558594 C 389.941406 150.566406 392.382812 157.269531 392.789062 157.039062 "/>
<path fill="none" stroke-width="0.8" stroke-linecap="round" stroke-linejoin="miter" stroke="rgb(0%, 0%, 0%)" stroke-opacity="1" stroke-miterlimit="10" d="M 396.476562 147.65625 C 393.597656 155.292969 390.136719 160.675781 388.445312 162.824219 "/>
<path fill="none" stroke-width="0.8" stroke-linecap="round" stroke-linejoin="miter" stroke="rgb(0%, 0%, 0%)" stroke-opacity="1" stroke-miterlimit="10" d="M 408.9375 143.332031 C 409.230469 152.363281 409.160156 155.40625 409.148438 156.988281 "/>
<path fill="none" stroke-width="0.8" stroke-linecap="round" stroke-linejoin="miter" stroke="rgb(0%, 0%, 0%)" stroke-opacity="1" stroke-miterlimit="10" d="M 409.148438 144.238281 C 420.164062 144.863281 420.132812 151.347656 409.390625 156.625 "/>
<path fill="none" stroke-width="0.8" stroke-linecap="round" stroke-linejoin="miter" stroke="rgb(0%, 0%, 0%)" stroke-opacity="1" stroke-miterlimit="10" d="M 421.960938 148.054688 C 419.3125 147.5 415.519531 155.367188 420.714844 156.796875 C 426.59375 158.417969 425.695312 148.34375 421.777344 148.023438 "/>
<path fill="none" stroke-width="0.8" stroke-linecap="round" stroke-linejoin="miter" stroke="rgb(0%, 0%, 0%)" stroke-opacity="1" stroke-miterlimit="10" d="M 431.449219 149.773438 C 424.773438 148.214844 424.1875 160.191406 431.875 155.945312 "/>
<path fill="none" stroke-width="0.8" stroke-linecap="round" stroke-linejoin="miter" stroke="rgb(0%, 0%, 0%)" stroke-opacity="1" stroke-miterlimit="10" d="M 431.574219 149.511719 C 431.832031 162.789062 433.5 166.539062 426.128906 161.183594 "/>
</svg>
